<svg width="543" height="820" viewBox="0 0 543 820" fill="none" xmlns="http://www.w3.org/2000/svg">
<path d="M284.73 788.087C267.02 818.649 227.869 829.078 197.284 811.383C166.699 793.686 156.262 754.565 173.971 724.004C173.973 723.999 173.975 723.997 173.976 723.993C173.985 723.979 173.983 723.983 173.995 723.963C174.013 723.931 174.032 723.898 174.066 723.839C174.129 723.73 174.225 723.567 174.35 723.35C174.6 722.919 174.972 722.275 175.462 721.429C176.443 719.737 177.893 717.236 179.766 714.003C183.514 707.536 188.961 698.135 195.76 686.401C209.358 662.934 228.364 630.136 249.994 592.808C259.548 576.32 269.614 558.948 279.953 541.107C277.146 541.192 274.328 541.236 271.5 541.236C121.752 541.236 0.000101636 420.273 0 270.618C0 120.964 121.752 0 271.5 0C421.249 0 543 120.964 543 270.618C543 325.376 526.699 376.293 498.691 418.848C456.863 491.032 403.649 582.867 360.753 656.893C339.123 694.219 320.118 727.019 306.519 750.485C299.72 762.219 294.272 771.619 290.525 778.086L286.222 785.512C285.732 786.357 285.358 787.002 285.108 787.434C284.983 787.65 284.888 787.814 284.825 787.923C284.795 787.975 284.768 788.02 284.753 788.046C284.742 788.067 284.744 788.063 284.735 788.076C284.733 788.08 284.732 788.082 284.732 788.084L284.73 788.087ZM415.014 270.618C415.014 191.987 350.957 127.888 271.5 127.888C192.043 127.888 127.986 191.987 127.986 270.618C127.986 349.25 192.043 413.348 271.5 413.348C350.957 413.348 415.014 349.25 415.014 270.618Z" fill="#FFA500"/>
</svg>
